<svg width="24" height="24" viewBox="0 0 24 24" fill="none" xmlns="http://www.w3.org/2000/svg">
<path d="M0.718516 20.9989C0.610301 20.9981 0.50363 20.9722 0.40636 20.923C0.30909 20.8738 0.2237 20.8026 0.156481 20.7146C0.0892622 20.6266 0.0419266 20.5241 0.0179617 20.4147C-0.00600329 20.3052 -0.00598702 20.1916 0.0180093 20.0821C2.00387 11.0787 6.77975 6.42362 13.4728 6.86276V2.81659C13.4802 2.66259 13.5264 2.5133 13.6068 2.38362C13.6872 2.25394 13.799 2.1484 13.931 2.07753C14.069 2.01053 14.2227 1.98621 14.3736 2.00748C14.5246 2.02876 14.6664 2.09474 14.7821 2.1975L23.7239 10.1042C23.8919 10.2688 23.991 10.4951 24 10.7346C23.9842 10.9715 23.8815 11.193 23.713 11.3537L14.7701 19.2253C14.6489 19.3165 14.5079 19.375 14.3595 19.3958C14.2112 19.4165 14.0602 19.3988 13.9201 19.3442C13.7841 19.2755 13.6693 19.169 13.5883 19.0365C13.5074 18.9039 13.4636 18.7507 13.4618 18.5938V14.319C4.2767 13.2947 1.48776 20.1783 1.3721 20.4873C1.32598 20.6315 1.23867 20.7578 1.12174 20.8494C1.00481 20.941 0.863802 20.9935 0.717425 21L0.718516 20.9989ZM11.6822 12.782C12.5269 12.7797 13.3706 12.8394 14.2071 12.9609C14.3936 13.0012 14.5626 13.103 14.6889 13.251C14.8151 13.3991 14.8918 13.5856 14.9076 13.7825V17.2006L22.2204 10.7697L14.9076 4.32754V7.5905C14.9042 7.70466 14.8792 7.81702 14.8338 7.92111C14.7885 8.02521 14.7239 8.11902 14.6435 8.19714C14.562 8.27037 14.4673 8.32609 14.3648 8.36106C14.2623 8.39603 14.1542 8.40956 14.0467 8.40086C8.80053 7.79309 4.92047 10.4947 2.64655 16.2351C5.09965 13.8856 8.34376 12.6286 11.6811 12.7345L11.6822 12.782Z" fill="black"/>
</svg>
