<svg width="24" height="24" viewBox="0 0 24 24" fill="none" xmlns="http://www.w3.org/2000/svg">
<g clip-path="url(#clip0_21_10)">
<path d="M22.8733 6.30862H19.3403C19.7111 5.86979 19.9794 5.35352 20.126 4.79853C20.2697 4.29684 20.3055 3.77062 20.2311 3.25421C20.1567 2.73781 19.9738 2.24283 19.6942 1.80156C19.416 1.35773 19.0475 0.976761 18.6126 0.683128C18.1776 0.389496 17.6857 0.189697 17.1686 0.0965711C16.1043 -0.0968431 15.0059 0.117055 14.0932 0.695447C13.5646 1.07149 13.1166 1.54852 12.7751 2.09875C12.4336 2.64897 12.2056 3.26136 12.1044 3.90021L11.9215 4.92888L11.7374 3.83568C11.6351 3.2038 11.4078 2.59844 11.0686 2.05472C10.7294 1.51101 10.2851 1.03976 9.76154 0.668343C8.84889 0.0899511 7.75048 -0.123947 6.68618 0.0694668C6.16905 0.162669 5.67723 0.362499 5.24227 0.656124C4.80732 0.94975 4.43886 1.33068 4.16055 1.77446C3.88134 2.21562 3.69859 2.71038 3.6242 3.22652C3.54981 3.74266 3.58546 4.26861 3.72881 4.77013C3.8805 5.32383 4.14888 5.83881 4.5145 6.28152H0.981469C0.722212 6.28486 0.474518 6.38887 0.29118 6.57139C0.107842 6.7539 0.00335868 7.00048 0 7.25856V12.0005C0.00335868 12.2586 0.107842 12.5052 0.29118 12.6877C0.474518 12.8702 0.722212 12.9742 0.981469 12.9776H1.5312V22.6964C1.5312 23.0419 1.66898 23.3733 1.91428 23.6177C2.15957 23.8622 2.49232 23.9997 2.83939 24H21.1593C21.4954 24.0004 21.8189 23.8722 22.0626 23.6417C22.3064 23.4113 22.4518 23.0964 22.4688 22.7622V13.0047H23.0185C23.2787 13.0043 23.5281 12.9013 23.7121 12.7181C23.8961 12.535 23.9996 12.2867 24 12.0276V7.28567C24.0011 7.1445 23.9715 7.00475 23.9133 6.87602C23.8551 6.74728 23.7696 6.63259 23.6627 6.53979C23.5559 6.447 23.4301 6.3783 23.2941 6.3384C23.158 6.2985 23.0136 6.28834 22.8733 6.30862ZM13.5435 4.21126C13.6698 3.32297 14.1397 2.51893 14.853 1.97064C15.4598 1.5897 16.1867 1.44579 16.8937 1.56666C17.2146 1.62486 17.5198 1.74875 17.7901 1.93048C18.0604 2.11222 18.2898 2.34784 18.4638 2.62244C18.6331 2.90094 18.7436 3.21085 18.7887 3.53328C18.8337 3.85571 18.8123 4.18388 18.7257 4.4978C18.5493 5.11812 18.1662 5.66024 17.6392 6.035H13.1908L13.5435 4.21126ZM5.41688 2.55661C5.59367 2.28187 5.82551 2.04641 6.09791 1.86497C6.3703 1.68352 6.67738 1.56 6.99994 1.50212C7.70319 1.38298 8.42587 1.52687 9.029 1.90611C9.38437 2.17569 9.68293 2.51231 9.90761 2.89676C10.1323 3.28121 10.2787 3.70595 10.3385 4.14673L10.6522 6.02209H6.20257C5.67586 5.64766 5.29271 5.10603 5.11609 4.48618C5.02169 4.16421 4.99623 3.82611 5.04134 3.49373C5.08645 3.16135 5.20114 2.84209 5.37798 2.55661H5.41688ZM1.491 7.76838H11.2668V11.5965H1.43914L1.491 7.76838ZM3.0222 13.0963H11.2668V22.5015H3.0222V13.0963ZM20.8844 22.5015H12.6541V13.0705H20.8844V22.5015ZM22.4156 11.572H12.6528V7.74257H22.4156V11.5707V11.572Z" fill="black"/>
</g>
<defs>
<clipPath id="clip0_21_10">
<rect width="24" height="24" fill="white"/>
</clipPath>
</defs>
</svg>
